<?xml version="1.0" standalone="no"?>
<!DOCTYPE svg PUBLIC "-//W3C//DTD SVG 20010904//EN"
 "http://www.w3.org/TR/2001/REC-SVG-20010904/DTD/svg10.dtd">
<svg version="1.0" xmlns="http://www.w3.org/2000/svg"
 width="1080.000000pt" height="1080.000000pt" viewBox="0 0 1080.000000 1080.000000"
 preserveAspectRatio="xMidYMid meet">

<g transform="translate(0.000000,1080.000000) scale(0.100000,-0.100000)"
fill="#000000" stroke="none">
<path d="M5799 10029 c-61 -7 -82 -15 -74 -29 3 -5 1 -19 -5 -31 -9 -16 -9
-28 1 -50 9 -23 9 -33 0 -42 -6 -6 -11 -21 -11 -33 0 -12 -7 -24 -15 -28 -8
-3 -15 -16 -15 -29 0 -13 -4 -27 -10 -33 -5 -5 -11 -24 -13 -41 -2 -18 -9 -38
-15 -45 -6 -8 -10 -23 -10 -33 1 -11 -6 -32 -16 -46 -17 -26 -18 -27 -49 -11
-18 8 -35 19 -38 24 -10 16 -60 38 -85 38 -12 0 -26 4 -29 10 -3 5 -16 10 -28
10 -37 1 -81 6 -97 13 -17 6 -12 6 -157 13 -105 5 -113 4 -125 -15 -9 -14 -23
-21 -44 -21 -22 0 -46 -12 -80 -40 -26 -21 -59 -40 -73 -42 -14 -2 -30 -13
-36 -25 -14 -27 -86 -104 -111 -119 -10 -6 -23 -24 -28 -40 -5 -16 -15 -41
-22 -56 -8 -14 -14 -31 -14 -38 0 -7 -6 -26 -14 -43 -20 -43 -36 -108 -30
-118 2 -4 -5 -10 -16 -14 -22 -7 -21 3 -24 -280 -1 -156 0 -161 23 -184 18
-19 23 -35 23 -69 -1 -25 5 -57 13 -71 7 -14 21 -46 30 -70 9 -24 25 -55 36
-69 10 -14 19 -30 19 -37 0 -7 13 -18 30 -25 35 -15 53 -34 57 -63 3 -23 59
-76 79 -77 6 0 29 -16 50 -36 42 -38 107 -76 127 -73 27 3 60 -1 54 -8 -4 -3
-46 -6 -93 -5 -61 1 -93 -3 -109 -14 -15 -10 -38 -13 -74 -9 -29 3 -70 1 -92
-5 -21 -6 -58 -13 -81 -15 -173 -17 -235 -28 -282 -49 -30 -13 -72 -27 -95
-31 -25 -4 -41 -12 -41 -21 0 -10 -13 -14 -45 -14 -26 0 -61 -8 -82 -20 -21
-11 -47 -20 -58 -20 -12 0 -30 -7 -41 -15 -10 -8 -30 -15 -42 -15 -13 0 -36
-9 -52 -20 -15 -11 -39 -24 -54 -30 -14 -5 -26 -14 -26 -19 0 -5 -17 -12 -37
-15 -21 -4 -57 -20 -80 -37 -23 -16 -50 -29 -61 -29 -10 0 -40 -16 -65 -35
-25 -19 -50 -35 -55 -35 -4 0 -18 -10 -29 -22 -29 -32 -54 -52 -107 -83 -25
-15 -46 -30 -46 -35 0 -17 -46 -19 -70 -2 -39 26 -71 42 -85 42 -7 0 -15 3
-17 8 -5 11 -64 42 -82 42 -9 0 -16 4 -16 10 0 15 -79 34 -160 37 -41 1 -84 3
-95 3 -52 3 -86 -9 -123 -41 -22 -18 -64 -49 -94 -67 -30 -18 -68 -50 -84 -71
-16 -22 -40 -47 -54 -56 -41 -28 -78 -95 -78 -141 -1 -23 -10 -59 -22 -80 -20
-38 -23 -65 -21 -204 0 -25 1 -59 1 -77 0 -18 5 -35 10 -38 6 -3 10 -15 10
-25 0 -10 9 -34 20 -52 10 -18 20 -51 20 -73 2 -52 -22 -161 -37 -177 -7 -6
-13 -20 -13 -29 0 -9 -7 -22 -15 -29 -7 -6 -17 -32 -21 -56 -4 -27 -13 -48
-24 -54 -9 -5 -20 -23 -24 -40 -3 -18 -15 -43 -26 -57 -11 -14 -20 -33 -20
-42 0 -9 -9 -41 -20 -71 -11 -30 -20 -62 -20 -72 0 -9 -4 -18 -9 -20 -15 -5
-23 -66 -12 -87 8 -14 5 -23 -14 -41 -27 -25 -33 -54 -40 -190 -4 -65 -11
-100 -21 -111 -11 -13 -14 -27 -9 -49 4 -17 2 -36 -3 -43 -12 -15 -22 -58 -28
-122 -3 -27 -9 -61 -14 -75 -5 -14 -9 -41 -9 -60 2 -66 -9 -245 -16 -283 -5
-24 -3 -42 5 -52 6 -8 10 -33 8 -57 -3 -38 0 -44 31 -65 41 -28 77 -30 90 -5
5 10 20 24 34 31 21 11 26 24 36 99 6 48 12 98 12 112 1 14 5 32 10 41 5 11 4
29 -2 48 -8 23 -8 35 0 45 6 7 11 29 11 47 0 85 7 159 18 171 14 17 24 61 27
118 3 51 11 93 27 130 5 14 12 58 13 98 2 41 9 79 15 87 13 16 18 38 31 130 5
39 17 81 28 95 10 14 21 46 25 72 4 25 14 52 21 58 8 7 15 23 15 35 0 13 6 25
14 28 8 3 17 19 21 36 4 17 11 33 16 36 5 4 9 17 9 30 0 13 5 27 10 30 6 4 8
15 5 24 -3 10 1 24 10 31 8 7 15 22 15 33 0 36 24 102 42 115 13 10 18 27 18
65 0 45 3 54 22 62 13 6 32 24 43 42 11 17 28 34 37 36 10 3 21 14 25 25 14
34 72 92 92 92 12 0 28 11 36 24 9 14 30 27 49 30 40 8 87 42 81 59 -9 23 33
69 106 117 41 27 82 56 92 64 9 9 22 16 28 16 5 0 7 4 4 10 -4 6 1 7 11 3 10
-3 22 0 28 8 6 8 23 15 37 17 32 3 140 54 163 77 9 9 38 28 64 41 26 13 43 24
37 24 -5 1 5 7 23 15 19 8 36 24 39 35 4 15 14 20 42 21 20 1 39 1 43 0 4 0 5
5 2 13 -4 9 10 18 41 27 26 8 51 22 56 31 5 10 16 18 23 18 8 0 31 9 53 19 48
24 138 51 169 51 12 0 27 6 31 13 10 16 58 37 84 37 10 0 27 4 37 9 31 16 93
33 99 27 9 -9 43 14 43 29 0 8 8 15 18 16 56 4 93 8 137 18 46 11 68 14 160
26 17 2 52 8 80 15 27 6 66 8 86 5 21 -4 47 -2 59 5 11 6 58 13 103 16 45 4
83 9 85 13 4 12 373 4 385 -8 12 -12 50 -15 60 -4 10 9 219 3 232 -6 9 -7 43
-10 197 -15 37 -1 63 -8 76 -19 15 -14 33 -16 90 -13 81 4 188 -19 216 -47 12
-11 33 -17 64 -17 26 0 84 -9 130 -20 46 -11 90 -20 98 -20 9 0 22 -7 30 -15
9 -8 25 -15 36 -15 11 0 32 -6 46 -14 67 -34 125 -56 148 -56 13 0 36 -7 49
-16 13 -9 29 -13 35 -9 5 3 22 -2 38 -13 15 -11 38 -23 52 -27 14 -4 39 -18
57 -31 17 -13 38 -24 46 -24 8 0 20 -7 28 -16 10 -12 23 -14 53 -9 55 9 135
10 168 2 15 -4 41 -21 58 -37 17 -17 35 -30 39 -30 5 0 18 -16 30 -35 11 -19
26 -35 32 -35 7 0 28 -18 47 -40 19 -23 39 -39 45 -37 15 5 53 -34 61 -63 7
-25 95 -90 122 -90 7 0 22 -12 31 -27 26 -41 63 -72 77 -67 18 7 43 -26 50
-69 7 -39 31 -70 129 -169 31 -33 57 -63 57 -69 0 -20 43 -68 71 -80 16 -6 29
-17 29 -23 0 -17 38 -93 50 -101 5 -3 10 -16 10 -29 0 -12 7 -31 15 -42 8 -10
15 -31 15 -45 0 -14 11 -36 25 -49 17 -16 23 -30 19 -43 -6 -20 8 -58 34 -89
8 -9 12 -20 9 -25 -8 -13 22 -158 34 -161 5 -2 7 -18 3 -38 -4 -20 -2 -40 5
-47 14 -17 43 -156 35 -168 -3 -5 -2 -8 3 -7 4 1 22 -12 40 -30 26 -27 37 -31
60 -26 29 7 73 45 73 63 0 6 12 22 26 36 19 19 23 31 18 48 -4 12 -9 42 -10
67 -2 47 -24 133 -48 191 -7 19 -17 55 -20 81 -4 27 -14 51 -23 56 -8 5 -21
32 -28 60 -8 29 -28 69 -45 91 -22 27 -34 54 -39 92 -8 63 -23 94 -51 109 -11
6 -20 21 -20 33 -1 12 -10 38 -20 57 -11 19 -26 49 -34 65 -16 33 -49 66 -84
85 -13 6 -21 14 -18 17 9 10 -23 61 -43 68 -23 7 -40 80 -22 98 6 6 11 20 11
30 0 10 9 30 20 44 11 14 20 39 20 55 0 16 5 39 11 50 8 15 8 27 -2 45 -10 19
-10 28 -1 43 15 24 16 57 1 66 -6 3 -8 19 -5 38 4 21 0 42 -13 66 -11 19 -29
55 -41 80 -12 25 -39 68 -60 95 -21 28 -41 60 -45 73 -4 13 -16 28 -28 33 -39
18 -68 36 -95 61 -56 50 -147 77 -320 95 -40 4 -59 1 -80 -13 -18 -12 -53 -19
-105 -22 -67 -4 -80 -8 -96 -28 -10 -13 -26 -24 -35 -24 -29 0 -69 -27 -120
-79 -27 -28 -53 -51 -58 -51 -5 0 -26 11 -48 25 -22 14 -48 25 -58 25 -10 0
-27 7 -38 15 -10 8 -26 15 -34 15 -9 0 -23 9 -33 20 -9 11 -23 20 -32 20 -8 0
-29 8 -47 18 -18 10 -46 22 -62 26 -16 4 -41 16 -54 27 -14 10 -33 19 -43 19
-10 0 -21 5 -24 10 -3 6 -19 10 -35 10 -16 0 -31 4 -34 9 -3 5 -33 12 -66 16
-33 4 -63 11 -66 16 -3 5 -16 9 -30 9 -14 0 -38 7 -54 15 -16 8 -72 20 -125
25 -53 6 -105 14 -115 20 -10 5 -29 10 -43 10 -13 0 -26 2 -29 5 -8 9 48 65
65 65 8 0 20 7 27 15 7 8 23 15 35 15 13 0 32 10 42 23 10 12 28 27 38 33 11
6 26 25 34 42 10 22 22 32 37 32 23 0 74 57 74 84 0 9 5 15 11 14 6 -2 14 4
18 12 4 8 21 42 37 74 15 33 39 75 51 93 13 19 23 45 23 59 0 13 12 42 26 64
20 30 25 47 21 70 -4 16 -2 32 3 35 5 3 14 24 20 46 9 31 8 44 -1 56 -10 11
-10 16 -1 22 18 11 18 42 3 158 -7 57 -11 109 -8 117 3 8 -2 25 -12 38 -10 13
-30 55 -44 95 -21 57 -38 84 -81 127 -30 31 -57 64 -61 76 -3 11 -10 20 -15
20 -5 0 -17 8 -27 19 -10 10 -30 21 -45 25 -16 3 -28 13 -28 21 0 17 -30 35
-58 35 -11 0 -25 6 -31 14 -26 31 -248 44 -353 20 -40 -9 -89 -19 -108 -21
-19 -3 -41 -10 -47 -15 -19 -15 -17 12 3 40 8 12 12 22 7 22 -4 0 0 5 9 11 14
7 15 15 8 34 -8 20 -6 29 11 46 14 14 19 28 15 43 -3 13 1 31 9 42 8 10 15 27
15 36 0 9 12 30 26 47 23 28 31 31 85 31 46 0 64 5 79 20 26 26 25 33 -4 66
-21 26 -29 28 -102 29 -43 0 -104 -2 -135 -6z m-691 -747 c41 -26 45 -48 27
-128 -3 -13 -27 -33 -66 -53 l-61 -32 -24 22 c-13 12 -24 18 -24 13 0 -5 -5
-1 -11 9 -14 24 -22 107 -10 107 5 0 11 9 14 20 3 11 13 23 24 27 10 3 29 15
42 25 26 19 48 17 89 -10z m2787 -1911 c3 -5 2 -12 -3 -15 -5 -3 -9 1 -9 9 0
17 3 19 12 6z"/>
<path d="M5111 6451 c-8 -5 -54 -8 -103 -6 -48 1 -91 -1 -94 -6 -3 -5 -23 -9
-45 -9 -44 0 -90 -20 -111 -48 -7 -9 -26 -18 -41 -19 -33 -1 -67 -29 -67 -54
0 -10 -11 -35 -25 -55 -14 -20 -25 -51 -25 -69 0 -18 -7 -38 -15 -45 -8 -7
-15 -26 -15 -43 0 -56 -23 -162 -36 -170 -8 -4 -14 -17 -14 -27 0 -11 -4 -20
-10 -20 -5 0 -10 -25 -10 -56 0 -34 -8 -74 -21 -105 -12 -27 -19 -58 -16 -70
4 -13 -2 -32 -16 -51 -16 -22 -22 -44 -22 -94 -1 -43 -6 -68 -15 -74 -7 -4
-17 -32 -21 -62 -5 -29 -16 -82 -25 -118 -9 -36 -16 -89 -15 -119 1 -29 -3
-58 -8 -65 -10 -12 -30 -100 -36 -156 -16 -172 -23 -279 -18 -298 3 -12 0 -29
-7 -36 -8 -10 -8 -20 -2 -33 10 -19 9 -110 -3 -162 -8 -35 7 -73 42 -109 34
-35 64 -52 94 -52 12 0 30 -6 38 -13 20 -17 103 -36 211 -47 47 -5 132 -14
188 -21 86 -10 105 -10 112 1 7 11 12 11 23 2 7 -6 45 -14 83 -16 38 -3 76 -7
85 -11 8 -3 28 -1 43 5 21 8 32 7 42 -1 11 -9 18 -9 28 0 11 9 16 9 21 1 7
-11 23 -10 103 6 18 3 38 2 45 -4 12 -10 87 3 113 20 7 4 26 3 44 -4 25 -8 38
-8 51 0 10 7 25 9 34 6 8 -3 23 -3 33 2 9 4 39 9 66 11 28 2 55 8 60 12 6 5
36 14 67 20 33 7 61 19 69 31 9 12 26 20 45 20 23 0 37 9 60 38 16 20 29 41
27 45 -1 5 2 6 7 3 5 -4 13 -2 16 4 8 13 20 171 16 220 -1 19 -2 73 -1 118 0
49 -4 90 -10 97 -7 8 -9 19 -6 24 4 6 2 30 -5 54 -8 33 -8 50 0 66 9 16 9 26
-1 44 -23 41 -38 92 -38 130 0 21 -5 47 -10 58 -6 10 -11 36 -12 56 0 21 -5
46 -10 56 -6 13 -6 29 2 48 11 25 10 32 -5 49 -10 11 -19 38 -20 62 -1 24 -5
50 -8 58 -3 8 -8 38 -10 65 -2 28 -9 64 -15 80 -19 53 -62 242 -62 272 0 16
-7 38 -15 49 -8 10 -15 29 -15 41 0 12 -4 25 -10 28 -5 3 -10 17 -10 30 0 13
-5 27 -10 30 -6 3 -7 17 -4 31 4 14 1 31 -7 41 -13 15 -15 26 -22 124 -3 39
-10 52 -52 93 -41 42 -54 49 -91 50 -24 1 -47 5 -50 9 -4 4 -30 7 -58 7 -28 0
-67 5 -86 11 -19 6 -89 12 -155 14 -67 1 -143 5 -170 9 -28 3 -56 2 -64 -3z
m-450 -1788 c13 -16 12 -17 -3 -4 -17 13 -22 21 -14 21 2 0 10 -8 17 -17z"/>
<path d="M3820 6400 c-14 -4 -43 -9 -65 -9 -49 -2 -57 -6 -90 -55 -28 -42 -38
-85 -25 -106 11 -17 86 -40 97 -30 4 4 23 12 42 19 28 9 37 8 51 -4 20 -18 46
-20 56 -4 4 7 23 9 50 5 42 -5 45 -4 69 32 28 41 34 102 11 121 -17 14 -119
41 -149 40 -12 -1 -33 -5 -47 -9z"/>
<path d="M6456 6401 c-33 -5 -42 -12 -62 -50 -26 -49 -25 -111 3 -143 21 -24
78 -32 112 -15 24 12 32 12 52 1 32 -18 54 -17 74 2 11 12 19 13 29 5 7 -6 15
-8 18 -6 3 3 17 0 32 -6 23 -11 29 -9 49 9 13 12 27 19 32 15 4 -5 5 -3 1 4
-4 7 4 21 17 34 17 14 23 27 19 42 -6 26 -82 98 -94 91 -5 -3 -22 -1 -38 6
-20 8 -34 9 -47 2 -9 -6 -24 -7 -33 -3 -22 12 -119 19 -164 12z"/>
<path d="M8609 5518 c-26 -7 -42 -19 -58 -48 -26 -47 -26 -65 2 -114 21 -35
31 -42 98 -64 91 -29 143 -25 193 13 56 42 56 66 3 133 -30 39 -52 57 -68 58
-13 1 -44 8 -69 17 -50 19 -51 19 -101 5z"/>
<path d="M8530 5098 c-19 -31 -23 -46 -23 -95 0 -46 24 -91 51 -99 9 -3 28
-11 42 -18 14 -8 31 -11 38 -9 6 3 12 0 12 -5 0 -6 20 -20 45 -32 43 -21 47
-21 79 -6 19 9 41 16 50 16 17 0 46 49 46 79 0 27 -96 130 -129 137 -14 4 -33
12 -41 19 -23 18 -71 33 -115 34 -32 1 -43 -3 -55 -21z"/>
<path d="M8667 4704 c-3 -4 -19 -8 -33 -10 -15 -1 -31 -9 -36 -18 -5 -8 -15
-21 -22 -29 -19 -18 -36 -81 -29 -107 3 -11 -4 -38 -16 -60 -11 -22 -21 -53
-21 -69 0 -15 -3 -31 -7 -35 -13 -12 -32 -87 -26 -102 3 -7 -4 -28 -14 -46
-11 -18 -19 -40 -19 -48 1 -8 -7 -23 -16 -32 -9 -9 -20 -34 -23 -55 -3 -21
-13 -50 -21 -65 -8 -14 -14 -32 -14 -38 0 -7 -7 -18 -16 -24 -9 -7 -20 -34
-25 -61 -12 -64 -40 -123 -62 -130 -22 -8 -40 -42 -33 -61 4 -9 -3 -18 -17
-23 -32 -12 -43 -30 -50 -75 -3 -21 -13 -46 -22 -56 -25 -27 -16 -116 14 -140
11 -9 31 -60 31 -80 0 -11 9 -29 20 -40 11 -11 20 -28 20 -38 0 -10 9 -25 20
-35 11 -9 20 -29 20 -44 0 -16 7 -36 15 -47 8 -10 17 -38 21 -62 6 -39 34 -84
53 -84 5 0 6 -11 3 -25 -5 -27 19 -85 43 -105 8 -7 15 -19 15 -27 0 -7 6 -24
14 -36 8 -12 25 -51 37 -87 12 -36 34 -83 49 -105 15 -22 25 -46 22 -53 -2 -8
4 -26 15 -40 27 -38 89 -171 98 -210 4 -19 11 -29 17 -26 6 4 9 1 6 -7 -6 -17
25 -111 46 -141 9 -12 16 -41 16 -63 0 -22 11 -74 24 -115 14 -41 22 -78 20
-82 -3 -5 3 -20 14 -36 10 -15 22 -40 26 -57 4 -16 14 -37 22 -46 8 -9 14 -20
13 -25 -5 -19 13 -73 26 -78 17 -6 52 -84 60 -134 11 -64 27 -106 52 -136 21
-25 24 -36 19 -70 -10 -60 12 -181 39 -212 13 -15 20 -34 18 -44 -3 -10 2 -31
10 -47 21 -37 37 -91 37 -119 0 -12 4 -24 10 -26 5 -1 12 -18 14 -35 2 -18 9
-39 16 -48 6 -8 14 -40 16 -71 3 -42 9 -61 23 -70 12 -9 18 -23 16 -40 -1 -15
6 -51 16 -81 11 -30 17 -58 14 -64 -4 -5 5 -30 19 -55 14 -26 26 -58 26 -72 0
-13 12 -57 26 -96 14 -39 27 -87 30 -106 2 -19 6 -50 9 -67 l6 -33 149 0 150
0 0 24 c0 13 -7 29 -15 36 -9 7 -13 15 -11 18 3 2 1 13 -4 23 -6 10 -12 44
-15 75 -2 31 -9 60 -16 65 -7 4 -9 14 -6 23 4 9 3 24 -2 34 -4 9 -16 33 -25
53 -10 20 -19 67 -20 107 -3 61 -8 76 -29 97 -22 23 -32 53 -43 134 -1 13 -10
42 -19 65 -21 52 -26 74 -26 111 0 16 -6 37 -13 45 -8 8 -19 40 -26 70 -6 30
-18 68 -26 83 -8 16 -17 53 -20 83 -4 34 -13 59 -24 67 -10 7 -19 32 -23 62
-3 28 -15 71 -26 97 -12 28 -16 50 -11 53 12 7 13 45 2 45 -18 0 -52 42 -52
64 0 24 -25 82 -40 91 -4 3 -11 24 -15 48 -3 23 -10 51 -14 62 -4 11 -16 45
-25 75 -33 106 -49 139 -66 145 -12 4 -16 13 -13 29 3 13 -2 30 -11 39 -9 8
-16 24 -16 34 0 10 -9 32 -20 48 -11 17 -20 42 -20 56 0 15 -7 32 -15 39 -8 7
-15 25 -15 39 0 15 -7 36 -15 47 -8 10 -15 34 -15 52 0 17 -4 32 -8 32 -11 0
-37 52 -53 107 -7 24 -20 50 -31 59 -10 10 -18 23 -18 30 0 7 -16 39 -35 71
-19 32 -35 64 -35 71 0 7 -11 33 -25 58 -14 25 -25 51 -25 59 0 7 -6 20 -14
27 -7 8 -19 32 -27 53 -7 22 -18 47 -24 55 -22 32 -35 60 -35 76 0 9 -13 39
-30 66 -16 26 -30 54 -30 61 0 26 -28 91 -44 102 -9 7 -16 24 -16 37 0 16 -9
32 -25 42 -14 9 -25 26 -25 38 0 12 -10 32 -22 45 -21 22 -21 23 -3 56 10 19
33 51 53 73 37 42 67 102 78 158 3 20 12 40 20 47 8 6 14 17 14 25 0 7 7 17
16 22 9 5 16 23 16 43 0 19 9 45 19 59 20 30 50 130 53 180 1 19 12 52 24 72
13 23 22 58 23 88 1 27 5 50 10 50 14 0 21 38 26 155 2 65 8 126 12 133 26 47
-48 150 -82 116z"/>
<path d="M2005 4666 c-47 -17 -52 -23 -58 -67 -7 -52 6 -89 31 -89 11 0 32
-10 47 -22 18 -14 44 -23 71 -24 23 -1 47 -4 52 -8 13 -8 42 2 65 23 11 9 32
16 49 17 48 3 60 35 33 95 -33 77 -41 82 -156 84 -57 1 -117 -3 -134 -9z"/>
<path d="M2022 4348 c-60 -47 -77 -107 -44 -148 14 -17 30 -22 82 -24 36 -2
85 -7 110 -10 38 -6 49 -4 69 13 13 12 27 21 30 21 11 0 39 54 36 70 -1 8 -22
35 -45 60 l-42 45 -80 1 c-73 0 -83 -2 -116 -28z"/>
<path d="M2233 4008 c-32 -19 -33 -21 -33 -92 0 -60 4 -76 20 -91 11 -10 20
-22 20 -26 0 -13 66 -113 84 -128 9 -7 16 -25 16 -40 0 -18 12 -38 36 -60 19
-19 42 -45 51 -58 8 -12 21 -23 27 -23 25 0 83 -85 66 -95 -5 -3 -16 -28 -24
-55 -8 -28 -26 -65 -40 -83 -14 -19 -26 -42 -26 -51 0 -10 -9 -30 -20 -44 -12
-14 -20 -35 -19 -46 3 -25 -19 -74 -43 -98 -10 -10 -18 -25 -18 -34 0 -9 -8
-28 -19 -42 -10 -15 -25 -43 -33 -62 -8 -19 -22 -41 -31 -49 -10 -7 -17 -24
-17 -36 0 -12 -10 -35 -22 -51 -43 -53 -88 -136 -88 -160 0 -12 -4 -25 -9 -29
-5 -3 -13 -20 -17 -38 -3 -17 -15 -43 -25 -56 -11 -13 -19 -31 -19 -39 0 -9
-8 -25 -18 -36 -10 -12 -24 -46 -31 -76 -8 -30 -21 -64 -30 -75 -9 -11 -23
-38 -30 -60 -8 -22 -22 -58 -32 -79 -11 -22 -19 -50 -19 -62 0 -12 -7 -29 -15
-38 -8 -8 -15 -18 -15 -22 0 -4 -7 -15 -15 -24 -9 -10 -18 -30 -20 -46 -10
-63 -32 -124 -51 -146 -12 -13 -27 -49 -34 -81 -7 -31 -19 -62 -26 -68 -7 -5
-10 -22 -8 -36 3 -18 -2 -32 -21 -48 -13 -13 -22 -30 -20 -38 3 -7 -1 -26 -9
-42 -9 -17 -12 -33 -7 -38 11 -11 -6 -67 -24 -82 -19 -16 -37 -80 -37 -133 0
-53 -22 -147 -39 -169 -7 -7 -13 -28 -15 -46 -4 -51 -16 -101 -26 -114 -6 -7
-12 -48 -14 -90 -4 -89 -20 -168 -41 -200 -10 -14 -12 -33 -8 -52 4 -19 1 -41
-10 -61 -9 -18 -14 -34 -12 -37 3 -2 -2 -21 -10 -41 -9 -23 -17 -79 -19 -147
-2 -60 -7 -138 -12 -172 l-8 -63 119 0 119 0 -6 25 c-4 14 0 40 7 58 36 82 37
88 26 108 -6 11 -8 37 -5 57 3 20 8 56 11 79 3 24 9 51 15 60 21 38 39 107 30
122 -5 10 0 39 15 81 35 99 42 127 54 245 9 94 36 188 57 206 9 8 14 27 13 53
-1 23 7 65 19 93 11 29 16 51 11 48 -4 -3 3 20 17 51 14 32 23 66 21 75 -3 10
1 26 9 37 7 10 14 30 16 43 2 13 7 30 11 37 5 6 5 12 0 12 -4 0 3 7 15 16 19
13 22 24 22 78 0 55 4 66 29 95 18 21 33 52 41 91 9 41 19 64 35 74 16 10 24
29 29 63 4 30 14 54 26 63 11 9 21 32 24 59 3 24 19 72 36 108 16 36 30 72 30
80 0 8 9 31 19 51 11 20 25 51 31 67 7 17 18 41 25 55 6 14 18 48 25 75 8 28
24 67 37 87 13 21 23 42 23 46 0 5 9 19 20 32 11 13 20 31 20 41 0 9 3 19 8
21 33 15 66 82 64 131 -1 17 43 69 51 61 4 -4 5 2 10 47 2 14 13 35 25 47 14
14 22 34 22 55 0 21 8 41 20 52 11 10 20 26 20 35 0 9 7 25 15 36 8 10 15 28
15 39 0 11 9 37 20 58 11 20 20 48 20 61 0 13 9 35 20 48 43 55 43 79 5 138
-5 8 -11 24 -12 35 -2 11 -23 39 -47 63 -25 23 -43 42 -40 42 13 0 -21 43 -42
52 -15 7 -24 20 -24 33 0 13 -25 49 -60 88 -34 36 -61 69 -60 72 1 13 -49 70
-94 106 -54 44 -76 47 -123 17z"/>
<path d="M4829 2671 c-21 -4 -44 -15 -53 -24 -9 -8 -25 -19 -36 -22 -11 -3
-20 -11 -20 -16 0 -5 -6 -9 -13 -9 -22 0 -42 -31 -63 -98 -10 -35 -27 -68 -36
-73 -9 -5 -19 -23 -23 -41 -4 -18 -18 -53 -31 -77 -13 -24 -24 -60 -24 -81 0
-21 -6 -43 -14 -49 -8 -7 -17 -23 -20 -36 -6 -22 -11 -24 -46 -22 -21 1 -53
13 -69 25 -17 12 -44 22 -61 22 -16 0 -30 3 -30 8 0 4 -21 16 -47 26 -49 21
-92 22 -123 6 -25 -13 -50 -66 -50 -104 0 -36 32 -94 58 -103 9 -4 28 -15 41
-25 13 -10 37 -18 52 -18 35 0 35 -2 8 -32 -70 -78 -79 -93 -79 -131 0 -21 -8
-49 -17 -63 -9 -14 -18 -42 -19 -62 -2 -21 -8 -77 -14 -127 l-10 -90 27 -22
c25 -20 57 -98 48 -113 -3 -4 -15 -5 -27 -3 -13 2 -50 -3 -83 -11 -32 -9 -80
-16 -107 -16 -26 0 -50 -4 -53 -10 -3 -5 -15 -10 -26 -10 -10 0 -19 -4 -19 -9
0 -5 -6 -16 -14 -24 -17 -17 -6 -91 17 -114 23 -23 103 -35 150 -22 22 6 67
11 101 13 44 1 70 8 91 23 23 16 52 23 125 27 68 5 114 14 160 33 36 15 77 26
91 25 15 -1 39 5 55 13 16 8 34 15 41 15 6 0 34 11 61 25 28 14 57 25 65 25 8
0 20 6 26 14 15 18 95 46 132 46 14 0 32 7 39 15 7 8 35 26 64 39 56 27 69 43
85 104 6 22 20 51 31 64 l19 23 2 -25 c0 -14 0 -37 -1 -52 -2 -35 60 -100 112
-117 20 -7 39 -18 41 -26 3 -7 21 -16 39 -20 18 -4 50 -16 71 -27 22 -11 45
-17 52 -14 7 2 22 -2 33 -9 10 -8 21 -12 24 -10 3 3 13 -4 23 -15 10 -11 28
-20 41 -20 12 0 24 -5 26 -12 5 -13 96 -37 144 -38 18 0 57 -12 88 -26 39 -18
68 -24 89 -21 18 2 48 -2 67 -10 19 -9 56 -15 82 -14 25 1 49 -3 53 -9 3 -5
17 -10 29 -10 13 0 29 -7 36 -14 9 -12 35 -14 128 -11 112 3 117 4 139 30 33
38 30 79 -10 120 -30 30 -38 33 -92 34 -33 0 -76 7 -96 15 l-37 15 36 68 c19
37 41 80 49 94 15 31 28 256 14 273 -5 6 -12 27 -16 46 -4 19 -25 55 -46 80
-22 26 -39 52 -39 58 0 6 -12 19 -27 29 -39 24 -43 33 -37 69 4 25 -1 37 -27
67 l-33 37 -108 -5 -109 -5 -12 28 c-12 27 -22 41 -59 83 -10 10 -18 30 -18
44 0 14 -8 29 -20 35 -11 6 -20 15 -20 21 0 5 -15 34 -34 63 -18 29 -37 62
-40 74 -4 12 -16 27 -27 32 -10 6 -19 17 -19 25 0 7 -9 16 -19 20 -11 3 -22
12 -25 20 -3 8 -23 23 -46 35 -22 11 -40 25 -40 30 0 6 -14 10 -31 10 -17 0
-39 5 -49 10 -14 8 -33 6 -67 -4 -27 -8 -60 -17 -74 -20 -14 -3 -37 -16 -51
-29 -31 -29 -62 -92 -53 -107 7 -12 -9 -52 -31 -80 -13 -15 -14 -17 -15 -47 0
-14 -3 -13 -11 5 -6 12 -15 22 -20 22 -11 0 -27 41 -31 85 -5 38 -47 84 -97
105 -16 7 -30 18 -30 25 0 17 -30 41 -60 48 -14 3 -34 8 -45 10 -11 3 -36 2
-56 -2z"/>
</g>
</svg>
